HIERARCHY
ROOT root
{
	OFFSET 0.000000 0.000000 0.000000
	CHANNELS 6 Xposition Yposition Zposition Zrotation Yrotation Xrotation
	JOINT lhip
	{
		OFFSET 0.058581 -0.082280 -0.017664
		CHANNELS 3 Zrotation Yrotation Xrotation
		JOINT lknee
		{
			OFFSET 0.043451 -0.386469 0.008037
			CHANNELS 3 Zrotation Yrotation Xrotation
			JOINT lankle
			{
				OFFSET -0.014790 -0.426874 -0.037428
				CHANNELS 3 Zrotation Yrotation Xrotation
				JOINT ltoe
				{
					OFFSET 0.041054 -0.060286 0.122042
					CHANNELS 3 Zrotation Yrotation Xrotation
					End Site
					{
						OFFSET 0.000000 0.000000 0.000000
					}
				}
			}
		}
	}
	JOINT rhip
	{
		OFFSET -0.060310 -0.090513 -0.013543
		CHANNELS 3 Zrotation Yrotation Xrotation
		JOINT rknee
		{
			OFFSET -0.043257 -0.383688 -0.004843
			CHANNELS 3 Zrotation Yrotation Xrotation
			JOINT rankle
			{
				OFFSET 0.019056 -0.420046 -0.034562
				CHANNELS 3 Zrotation Yrotation Xrotation
				JOINT rtoe
				{
					OFFSET -0.034840 -0.062106 0.130323
					CHANNELS 3 Zrotation Yrotation Xrotation
					End Site
					{
						OFFSET 0.000000 0.000000 0.000000
					}
				}
			}
		}
	}
	JOINT lowerback
	{
		OFFSET 0.004439 0.124404 -0.038385
		CHANNELS 3 Zrotation Yrotation Xrotation
		JOINT upperback
		{
			OFFSET 0.004488 0.137956 0.026820
			CHANNELS 3 Zrotation Yrotation Xrotation
			JOINT chest
			{
				OFFSET -0.002265 0.056032 0.002855
				CHANNELS 3 Zrotation Yrotation Xrotation
				JOINT lowerneck
				{
					OFFSET -0.013390 0.211636 -0.033468
					CHANNELS 3 Zrotation Yrotation Xrotation
					JOINT upperneck
					{
						OFFSET 0.010113 0.088937 0.050410
						CHANNELS 3 Zrotation Yrotation Xrotation
						End Site
						{
							OFFSET 0.000000 0.000000 0.000000
						}
					}
				}
				JOINT lclavicle
				{
					OFFSET 0.071702 0.114000 -0.018898
					CHANNELS 3 Zrotation Yrotation Xrotation
					JOINT lshoulder
					{
						OFFSET 0.122921 0.045205 -0.019046
						CHANNELS 3 Zrotation Yrotation Xrotation
						JOINT lelbow
						{
							OFFSET 0.255332 -0.015649 -0.022946
							CHANNELS 3 Zrotation Yrotation Xrotation
							JOINT lwrist
							{
								OFFSET 0.265709 0.012698 -0.007375
								CHANNELS 3 Zrotation Yrotation Xrotation
								End Site
								{
									OFFSET 0.000000 0.000000 0.000000
								}
							}
						}
					}
				}
				JOINT rclavicle
				{
					OFFSET -0.082954 0.112472 -0.023707
					CHANNELS 3 Zrotation Yrotation Xrotation
					JOINT rshoulder
					{
						OFFSET -0.113228 0.046853 -0.008472
						CHANNELS 3 Zrotation Yrotation Xrotation
						JOINT relbow
						{
							OFFSET -0.260127 -0.014369 -0.031269
							CHANNELS 3 Zrotation Yrotation Xrotation
							JOINT rwrist
							{
								OFFSET -0.269108 0.006794 -0.006027
								CHANNELS 3 Zrotation Yrotation Xrotation
								End Site
								{
									OFFSET 0.000000 0.000000 0.000000
								}
							}
						}
					}
				}
			}
		}
	}
}
MOTION
Frames: 16
Frame Time: 0.033333
-0.052997 0.304688 0.957775 78.874494 -0.757624 90.766187 4.286998 6.519842 -23.224292 -5.625174 5.591919 37.509297 0.202484 14.980694 -14.566088 0.000000 -0.000000 0.000000 -5.218414 -2.685699 -27.138681 4.060091 3.366979 38.800297 7.252357 -8.800039 -12.730753 0.000000 -0.000000 0.000000 1.639921 -0.330807 36.039120 -2.052847 -1.244532 -2.990520 1.196957 -1.054838 2.093429 -2.558856 -1.443171 -8.380446 5.116839 1.714428 -3.487646 -11.352286 -25.270335 -6.262915 5.013905 -16.910987 -13.595074 14.232969 -36.624336 -48.999616 5.854339 -15.098341 -41.823860 4.029750 26.722309 -6.251077 -9.615495 14.967683 -18.058512 -8.725269 15.378286 -38.606483 5.584424 5.755899 -11.676521 
-0.056391 0.305580 0.951850 79.249220 -0.779343 90.499659 4.424846 6.610328 -24.361681 -5.640583 5.852908 39.538135 0.437927 14.608648 -15.211683 0.000000 -0.000000 0.000000 -5.346398 -2.779570 -28.056132 4.199402 3.027192 40.642661 7.007187 -8.975514 -13.298124 0.000000 -0.000000 0.000000 1.607432 -0.301432 36.886256 -2.081359 -1.411485 -2.327093 1.179133 -1.101630 1.749198 -2.770962 -1.048451 -8.651558 5.144413 2.064019 -3.860458 -11.791427 -27.202527 -5.834472 5.597728 -17.383413 -13.158391 14.305494 -38.298018 -48.789945 5.085891 -15.266021 -43.434777 4.560283 28.468801 -5.609694 -10.418499 15.467395 -18.290240 -8.699575 16.286434 -38.395366 6.261137 5.882568 -12.333409 
-0.059790 0.306172 0.946056 79.529705 -0.790796 90.131405 4.524110 6.612830 -25.323384 -5.448865 6.175152 41.456965 0.663067 14.289090 -15.791658 0.000000 -0.000000 0.000000 -5.407060 -2.771512 -28.914393 4.138776 2.617709 42.502884 6.655747 -9.020585 -13.862385 0.000000 -0.000000 0.000000 1.520043 -0.190207 37.896860 -2.124010 -1.569814 -1.606472 1.187565 -1.182952 1.316054 -2.918432 -0.383343 -9.208588 5.043204 2.165349 -3.967927 -11.677232 -29.051030 -5.863226 6.201250 -17.904099 -13.189858 13.630999 -39.541298 -47.746703 3.394900 -16.512026 -43.642248 4.442142 30.144279 -5.419178 -10.590615 16.292651 -18.500511 -9.070113 17.115284 -37.966785 7.551823 6.302028 -12.123732 
-0.061521 0.306569 0.940759 79.669492 -0.747632 89.493067 4.430497 7.356842 -25.848995 -5.262288 5.581544 43.413791 -0.412610 13.770974 -17.157100 0.000000 -0.000000 0.000000 -4.886611 -3.296825 -29.315985 3.316644 2.803455 44.239983 7.295732 -8.231253 -14.733862 0.000000 -0.000000 0.000000 1.589311 -0.038090 39.006455 -2.593540 -1.720044 -0.283878 1.572012 -1.353521 -0.314679 -4.045025 -2.069542 -7.398604 6.006493 4.901608 -5.327482 -13.974751 -32.085544 -4.662410 9.481981 -16.428630 -11.093360 13.584959 -41.635286 -48.216074 1.407929 -17.068023 -45.132677 5.929795 33.493817 -4.152986 -13.049058 15.084906 -17.258513 -7.631775 18.885638 -39.321269 5.304076 5.283982 -11.419149 
-0.063759 0.307279 0.935345 80.047053 -0.689749 89.041677 4.506954 7.412613 -26.596705 -5.188891 5.416435 45.173455 -0.329735 13.607740 -17.694968 0.000000 -0.000000 0.000000 -4.864213 -3.501294 -29.795930 3.198785 2.510729 45.731237 7.083665 -8.220303 -15.184072 0.000000 -0.000000 0.000000 1.692250 0.012872 39.955917 -2.684549 -1.832257 0.424833 1.635255 -1.391475 -0.858255 -4.543153 -1.802213 -7.238111 6.153892 5.329049 -5.827582 -13.843435 -34.019333 -4.560782 10.624316 -16.586443 -10.966282 12.722395 -43.505096 -47.401104 1.495424 -17.583833 -45.861542 5.297184 35.337788 -4.174375 -13.481969 15.536723 -17.499173 -7.225997 20.041812 -38.604510 5.764496 5.638493 -11.943482 
-0.065830 0.307298 0.930484 80.435107 -0.592275 88.590194 4.698193 7.284445 -27.269676 -4.997203 5.455131 46.823703 -0.340523 13.377821 -18.076990 0.000000 -0.000000 0.000000 -4.823334 -3.495419 -30.142915 3.182789 2.262119 47.028646 6.656137 -8.240318 -15.801615 0.000000 -0.000000 0.000000 1.724882 0.060216 40.835260 -2.782361 -1.935959 1.034208 1.631914 -1.289532 -1.369532 -4.883347 -1.358094 -6.943825 6.391927 5.691029 -6.085677 -13.141584 -35.749269 -4.882287 11.329905 -17.362025 -10.848760 12.152745 -44.791703 -46.390844 0.407939 -18.283106 -46.172538 4.412797 36.924096 -4.188233 -13.683144 16.146095 -17.540174 -7.178914 21.472004 -37.763088 6.554924 5.804280 -13.264035 
-0.067666 0.306723 0.926286 80.958126 -0.559133 88.020960 4.705018 7.252235 -27.753819 -4.792789 5.164430 48.272135 -0.295466 13.240153 -18.412187 0.000000 -0.000000 0.000000 -4.705205 -3.836166 -30.351058 2.990857 2.010487 48.340470 6.426688 -8.369300 -16.081676 0.000000 -0.000000 0.000000 1.703014 0.237304 41.630750 -2.943000 -2.110768 1.819282 1.704864 -1.103512 -1.881409 -5.174964 -1.224018 -6.564391 6.882858 6.059607 -6.472428 -12.133148 -37.613173 -5.391418 12.267120 -18.157438 -11.031823 11.008510 -46.138645 -45.674250 0.742407 -18.577779 -46.640908 3.287653 38.504445 -4.218795 -13.999025 16.216782 -17.643687 -6.945921 23.364061 -36.695950 6.996953 6.275858 -14.211794 
-0.069370 0.306325 0.922432 81.553067 -0.497424 87.636041 4.680900 7.086246 -28.409230 -4.682865 4.749925 49.631481 -0.274104 13.096449 -18.568497 0.000000 -0.000000 0.000000 -4.661618 -3.954417 -30.598239 2.921523 1.734914 49.416996 6.186584 -8.622794 -16.480691 0.000000 -0.000000 0.000000 1.802654 0.385990 42.211392 -3.059241 -2.226681 2.275173 1.703171 -1.193305 -2.056436 -5.478751 -0.891680 -6.162334 7.213369 6.408295 -6.857090 -11.072113 -39.404120 -5.836600 13.327906 -18.528761 -10.886328 10.738061 -47.475026 -44.993263 0.206689 -19.287667 -47.632094 2.040016 39.981084 -4.522200 -14.398649 16.717625 -17.775834 -6.888356 25.428191 -35.780411 7.635377 6.697505 -15.602574 
-0.071020 0.304916 0.919100 82.257112 -0.484453 87.279058 4.709134 6.720503 -28.895346 -4.525953 4.504834 50.677094 -0.337126 12.978036 -18.747729 0.000000 -0.000000 0.000000 -4.588622 -4.032195 -30.750663 2.678426 1.396940 50.359402 6.081725 -8.920059 -16.951975 0.000000 -0.000000 0.000000 1.666611 0.687802 42.704832 -3.112514 -2.374843 2.583624 1.728117 -1.191157 -2.150643 -5.614183 -0.475694 -5.779863 7.598770 6.480864 -7.092208 -9.945872 -40.858614 -6.238534 14.472411 -19.249362 -10.935653 10.195810 -48.973240 -44.894706 0.714137 -19.724959 -48.321050 1.068368 41.145666 -5.018461 -15.060684 17.543358 -17.926446 -6.367581 27.533406 -34.705518 7.874695 7.456855 -16.517770 
-0.072631 0.303232 0.916438 83.227858 -0.412791 86.950334 4.706093 6.396938 -29.374963 -4.477086 3.996211 51.555268 -0.323891 12.826211 -18.804770 0.000000 -0.000000 0.000000 -4.518665 -4.165833 -30.767520 2.440266 0.917092 51.134218 5.921074 -9.228358 -17.301019 0.000000 -0.000000 0.000000 1.553108 0.827979 43.208449 -3.258764 -2.619898 2.862480 1.752688 -1.131242 -2.400570 -5.671511 -0.181513 -5.407549 7.978714 6.714189 -7.182759 -8.702214 -42.268804 -6.927632 15.396057 -19.884764 -10.840365 9.725952 -50.396031 -44.852649 1.257611 -20.131273 -49.258559 -0.625150 42.357601 -5.941873 -14.752777 18.119071 -17.204352 -6.638379 29.896220 -34.266496 8.085296 8.078380 -17.671012 
-0.074012 0.300620 0.914904 84.334118 -0.371654 86.618871 4.737080 6.173195 -29.549809 -4.664018 3.363208 51.919989 -0.404878 12.598049 -18.756976 0.000000 -0.000000 0.000000 -4.425402 -4.355883 -30.530913 2.175501 0.457024 51.485715 5.784686 -9.664295 -17.634284 0.000000 -0.000000 0.000000 1.338721 1.180170 43.625410 -3.347451 -2.794417 3.265440 1.866438 -1.162324 -2.734387 -5.756899 0.049558 -5.069622 8.399967 6.826292 -7.217717 -7.796842 -43.653602 -7.403168 16.404884 -20.502750 -10.980926 9.322343 -51.757842 -44.899500 1.351131 -20.458426 -50.056906 -1.755141 43.326012 -6.353314 -15.315855 18.503681 -17.272288 -6.268648 32.627545 -33.487000 8.582969 8.817636 -19.275133 
-0.074645 0.297125 0.914089 85.582550 -0.309037 86.257070 4.883501 6.117266 -29.557988 -4.949091 2.733786 52.101390 -0.483629 12.153097 -18.634315 0.000000 -0.000000 0.000000 -4.242714 -4.700426 -30.105234 1.929910 0.026936 51.757770 5.491517 -10.106102 -17.911214 0.000000 -0.000000 0.000000 1.190753 1.450479 43.860228 -3.561733 -2.906791 3.602764 1.819642 -1.162674 -2.874329 -5.838156 0.219978 -4.859523 8.934918 6.992044 -7.194534 -7.018798 -44.717884 -7.991531 17.040563 -21.348898 -11.066708 9.374782 -53.112528 -45.215167 2.039803 -20.463319 -50.952703 -3.029693 44.030931 -7.345594 -15.362369 19.139519 -16.927931 -6.416582 35.272521 -33.043751 9.131205 9.521281 -20.883514 
-0.075137 0.293165 0.914309 86.903326 -0.314183 86.314348 4.948805 5.982329 -29.817209 -5.195893 2.194317 51.915672 -0.566761 11.623137 -18.494602 0.000000 -0.000000 0.000000 -4.138368 -4.968377 -30.003522 1.653176 -0.518316 51.823788 5.366437 -10.486187 -18.014269 0.000000 -0.000000 0.000000 0.937351 1.701194 43.826448 -3.884214 -2.965900 3.342762 1.757802 -1.163331 -2.790414 -5.862517 0.260498 -4.441206 9.199452 7.443366 -7.244043 -6.815139 -45.421318 -8.308011 17.314722 -22.410844 -11.169731 10.074951 -54.273259 -46.145494 2.375024 -20.708107 -51.710522 -3.804764 44.417077 -7.831918 -15.795172 19.840742 -16.726520 -6.270180 38.118484 -32.310089 8.984279 10.141647 -22.404925 
-0.074911 0.288434 0.915439 88.322878 -0.371854 86.339394 5.081394 5.672599 -29.840347 -5.630344 1.674506 51.434934 -0.678900 11.259520 -18.057533 0.000000 -0.000000 0.000000 -3.978973 -5.303651 -29.672403 1.215620 -1.019052 51.669403 5.419713 -10.862759 -18.166388 0.000000 -0.000000 0.000000 0.641067 1.980760 43.974287 -4.311886 -2.932220 2.508532 1.648719 -1.137782 -2.371981 -5.995681 0.097559 -4.070950 9.751069 8.180685 -7.251990 -6.731131 -45.734219 -8.370924 17.101306 -23.471168 -10.957266 11.785014 -55.726834 -48.001105 4.184109 -20.029552 -53.583075 -4.932271 44.571589 -8.519074 -15.890593 20.338390 -16.416753 -6.383171 40.717162 -31.900056 8.910352 10.847778 -23.945987 
-0.074134 0.282612 0.917118 89.818152 -0.476412 86.398209 5.234139 5.454939 -29.727287 -6.077490 1.126937 50.737427 -0.670160 10.710744 -17.530194 0.000000 -0.000000 0.000000 -3.770809 -5.522739 -29.207338 0.849324 -1.449913 51.369337 5.354864 -11.619174 -18.175102 0.000000 -0.000000 0.000000 0.382582 2.321058 43.973339 -4.951443 -2.730613 1.833172 1.437392 -1.104567 -2.112005 -6.023894 -0.353196 -3.622132 10.341395 9.121298 -7.118647 -7.105557 -46.089537 -8.170619 16.987239 -24.486167 -10.811468 12.979124 -57.006717 -49.909194 6.047429 -19.066883 -55.127619 -5.954355 44.537995 -9.006668 -15.962846 20.315741 -15.989771 -6.651646 43.457141 -32.004149 8.828705 11.418533 -25.718867 
-0.073254 0.276424 0.918910 91.610696 -0.374860 86.336408 5.452609 5.241363 -29.568944 -6.445655 0.270079 50.027338 -0.825485 10.112871 -17.001543 0.000000 -0.000000 0.000000 -3.363949 -5.775130 -28.532633 0.382750 -2.007461 50.905400 5.210472 -12.309594 -18.498694 0.000000 -0.000000 0.000000 0.032192 2.448687 43.794216 -5.414152 -2.737593 1.738109 1.367512 -0.794687 -2.155129 -6.069651 -0.826056 -3.048430 10.864694 10.102814 -7.136654 -7.860290 -46.432080 -7.922554 16.507916 -24.936727 -10.151713 15.113592 -58.228475 -52.322453 7.023794 -18.448293 -56.206089 -6.868959 44.851220 -9.429096 -16.672412 20.036574 -15.895768 -6.188550 45.730792 -32.044491 8.629817 11.986145 -26.531618 
